# xmcd
#
# Track frame offsets:
#	180
#	39030
#	64380
#	104606
#	130531
#	162958
#	210406
#	238307
#
# Disc length: 3486 seconds
#
# Revision: 0
# Processed by: cddbd v1.4PL0 Copyright (c) Steve Scherf et al.
# Submitted via: dBpowerAMP V4.0
#
DISCID=680d9c08
DTITLE=Buddy King Band, The - Blues Hawgs
DYEAR=1996
DGENRE=Blues
TTITLE0=Cross Cut Saw
TTITLE1=Walkin By Myself
TTITLE2=Redheaded Woman
TTITLE3=Kansas City
TTITLE4=She Moves Me
TTITLE5=Cost To Be The Boss - Let Me Love You
TTITLE6=The Grinder
TTITLE7=Too Bad
EXTD=Don Cobb - Lead Vocals and Bass Guitar\nRoy Anderson - Lead Guitar\nVictor Brain -Drums and Vocals\nDavid Schrader - Saxophone and Vocals\n
EXTT0=
EXTT1=
EXTT2=
EXTT3=
EXTT4=
EXTT5=
EXTT6=
EXTT7=
PLAYORDER=
